# xmcd
#
# Track frame offsets:
#	150
#	11190
#	24495
#	32262
#	42427
#	57799
#	69147
#	84915
#	96269
#	108949
#
# Disc length: 1622 seconds
#
# Revision: 1
# Processed by: cddbd v1.5.2PL0 Copyright (c) Steve Scherf et al.
# Submitted via: audiograbber 1.83.01
#
DISCID=6d06540a
DTITLE=Various Artist - 30 #1 Country Hits (2 of 3)
DYEAR=1900
DGENRE=Country Classics
TTITLE0=Hank Williams - I'll Never Get out Of This World Alive
TTITLE1=Conway Twitty - After all The Good Is Gone
TTITLE2=Roger Miller - Dang Me
TTITLE3=George Jones - Walk Through This World With Me
TTITLE4=Lee Greenwood - I Don't Mind The Thorns (If Your tThe Rose)
TTITLE5=Ray Price - My Shoes Keep Walking Back To You
TTITLE6=Ernst Tubb and Johnny Cash - Soldiers Last Letter
TTITLE7=Porter Wagner - Misery Loves Company
TTITLE8=Hank Snow - I'm Movin' On
TTITLE9=Carl Smith - Let old Mother Nature Have Her Way
EXTD=
EXTT0=
EXTT1=
EXTT2=
EXTT3=
EXTT4=
EXTT5=
EXTT6=
EXTT7=
EXTT8=
EXTT9=
PLAYORDER=
